<svg viewBox="0 0 1112.2000732421875 400" xmlns="http://www.w3.org/2000/svg"><g><g><g><g><g><line x1="50" y1="377" x2="45" y2="377" style="visibility: inherit;" fill="rgb(0, 0, 0)" stroke="rgb(204, 204, 204)" stroke-width="1px"></line><line x1="50" y1="342.7272727272727" x2="45" y2="342.7272727272727" style="visibility: inherit;" fill="rgb(0, 0, 0)" stroke="rgb(204, 204, 204)" stroke-width="1px"></line><line x1="50" y1="308.45454545454544" x2="45" y2="308.45454545454544" style="visibility: inherit;" fill="rgb(0, 0, 0)" stroke="rgb(204, 204, 204)" stroke-width="1px"></line><line x1="50" y1="274.1818181818182" x2="45" y2="274.1818181818182" style="visibility: inherit;" fill="rgb(0, 0, 0)" stroke="rgb(204, 204, 204)" stroke-width="1px"></line><line x1="50" y1="239.90909090909085" x2="45" y2="239.90909090909085" style="visibility: inherit;" fill="rgb(0, 0, 0)" stroke="rgb(204, 204, 204)" stroke-width="1px"></line><line x1="50" y1="205.63636363636363" x2="45" y2="205.63636363636363" style="visibility: inherit;" fill="rgb(0, 0, 0)" stroke="rgb(204, 204, 204)" stroke-width="1px"></line><line x1="50" y1="171.36363636363635" x2="45" y2="171.36363636363635" style="visibility: inherit;" fill="rgb(0, 0, 0)" stroke="rgb(204, 204, 204)" stroke-width="1px"></line><line x1="50" y1="137.09090909090915" x2="45" y2="137.09090909090915" style="visibility: inherit;" fill="rgb(0, 0, 0)" stroke="rgb(204, 204, 204)" stroke-width="1px"></line><line x1="50" y1="102.81818181818181" x2="45" y2="102.81818181818181" style="visibility: inherit;" fill="rgb(0, 0, 0)" stroke="rgb(204, 204, 204)" stroke-width="1px"></line><line x1="50" y1="68.54545454545453" x2="45" y2="68.54545454545453" style="visibility: inherit;" fill="rgb(0, 0, 0)" stroke="rgb(204, 204, 204)" stroke-width="1px"></line><line x1="50" y1="34.27272727272729" x2="45" y2="34.27272727272729" style="visibility: inherit;" fill="rgb(0, 0, 0)" stroke="rgb(204, 204, 204)" stroke-width="1px"></line><line x1="50" y1="0" x2="45" y2="0" style="visibility: inherit;" fill="rgb(0, 0, 0)" stroke="rgb(204, 204, 204)" stroke-width="1px"></line></g><g transform="translate(40, 0)"><text x="0" y="377" dx="0em" dy="0.3em" style="text-anchor: end; visibility: hidden; font-family: Roboto, sans-serif; font-size: 12px; font-weight: 200;" fill="rgb(33, 33, 33)" stroke="none" stroke-width="1px">0.35</text><text x="0" y="342.7272727272727" dx="0em" dy="0.3em" style="text-anchor: end; visibility: inherit; font-family: Roboto, sans-serif; font-size: 12px; font-weight: 200;" fill="rgb(33, 33, 33)" stroke="none" stroke-width="1px">0.4</text><text x="0" y="308.45454545454544" dx="0em" dy="0.3em" style="text-anchor: end; visibility: inherit; font-family: Roboto, sans-serif; font-size: 12px; font-weight: 200;" fill="rgb(33, 33, 33)" stroke="none" stroke-width="1px">0.45</text><text x="0" y="274.1818181818182" dx="0em" dy="0.3em" style="text-anchor: end; visibility: inherit; font-family: Roboto, sans-serif; font-size: 12px; font-weight: 200;" fill="rgb(33, 33, 33)" stroke="none" stroke-width="1px">0.5</text><text x="0" y="239.90909090909085" dx="0em" dy="0.3em" style="text-anchor: end; visibility: inherit; font-family: Roboto, sans-serif; font-size: 12px; font-weight: 200;" fill="rgb(33, 33, 33)" stroke="none" stroke-width="1px">0.55</text><text x="0" y="205.63636363636363" dx="0em" dy="0.3em" style="text-anchor: end; visibility: inherit; font-family: Roboto, sans-serif; font-size: 12px; font-weight: 200;" fill="rgb(33, 33, 33)" stroke="none" stroke-width="1px">0.6</text><text x="0" y="171.36363636363635" dx="0em" dy="0.3em" style="text-anchor: end; visibility: inherit; font-family: Roboto, sans-serif; font-size: 12px; font-weight: 200;" fill="rgb(33, 33, 33)" stroke="none" stroke-width="1px">0.65</text><text x="0" y="137.09090909090915" dx="0em" dy="0.3em" style="text-anchor: end; visibility: inherit; font-family: Roboto, sans-serif; font-size: 12px; font-weight: 200;" fill="rgb(33, 33, 33)" stroke="none" stroke-width="1px">0.7</text><text x="0" y="102.81818181818181" dx="0em" dy="0.3em" style="text-anchor: end; visibility: inherit; font-family: Roboto, sans-serif; font-size: 12px; font-weight: 200;" fill="rgb(33, 33, 33)" stroke="none" stroke-width="1px">0.75</text><text x="0" y="68.54545454545453" dx="0em" dy="0.3em" style="text-anchor: end; visibility: inherit; font-family: Roboto, sans-serif; font-size: 12px; font-weight: 200;" fill="rgb(33, 33, 33)" stroke="none" stroke-width="1px">0.8</text><text x="0" y="34.27272727272729" dx="0em" dy="0.3em" style="text-anchor: end; visibility: inherit; font-family: Roboto, sans-serif; font-size: 12px; font-weight: 200;" fill="rgb(33, 33, 33)" stroke="none" stroke-width="1px">0.85</text><text x="0" y="0" dx="0em" dy="0.3em" style="text-anchor: end; visibility: hidden; font-family: Roboto, sans-serif; font-size: 12px; font-weight: 200;" fill="rgb(33, 33, 33)" stroke="none" stroke-width="1px">0.9</text></g><line x1="50" y1="0" x2="50" y2="377" fill="rgb(0, 0, 0)" stroke="rgb(204, 204, 204)" stroke-width="1px"></line></g></g><g transform="translate(50, 0)" clip-path="url(#clip_0)"><clipPath id="clip_0"><rect width="1062" height="377"></rect></clipPath><g><g><g><line x1="0" y1="0" x2="0" y2="377" fill="rgb(0, 0, 0)" stroke="rgb(66, 66, 66)" stroke-width="1px" opacity="0.25"></line><line x1="88.51666666666667" y1="0" x2="88.51666666666667" y2="377" fill="rgb(0, 0, 0)" stroke="rgb(66, 66, 66)" stroke-width="1px" opacity="0.25"></line><line x1="177.03333333333333" y1="0" x2="177.03333333333333" y2="377" fill="rgb(0, 0, 0)" stroke="rgb(66, 66, 66)" stroke-width="1px" opacity="0.25"></line><line x1="265.55" y1="0" x2="265.55" y2="377" fill="rgb(0, 0, 0)" stroke="rgb(66, 66, 66)" stroke-width="1px" opacity="0.25"></line><line x1="354.06666666666666" y1="0" x2="354.06666666666666" y2="377" fill="rgb(0, 0, 0)" stroke="rgb(66, 66, 66)" stroke-width="1px" opacity="0.25"></line><line x1="442.58333333333337" y1="0" x2="442.58333333333337" y2="377" fill="rgb(0, 0, 0)" stroke="rgb(66, 66, 66)" stroke-width="1px" opacity="0.25"></line><line x1="531.1" y1="0" x2="531.1" y2="377" fill="rgb(0, 0, 0)" stroke="rgb(66, 66, 66)" stroke-width="1px" opacity="0.25"></line><line x1="619.6166666666668" y1="0" x2="619.6166666666668" y2="377" fill="rgb(0, 0, 0)" stroke="rgb(66, 66, 66)" stroke-width="1px" opacity="0.25"></line><line x1="708.1333333333333" y1="0" x2="708.1333333333333" y2="377" fill="rgb(0, 0, 0)" stroke="rgb(66, 66, 66)" stroke-width="1px" opacity="0.25"></line><line x1="796.6500000000001" y1="0" x2="796.6500000000001" y2="377" fill="rgb(0, 0, 0)" stroke="rgb(66, 66, 66)" stroke-width="1px" opacity="0.25"></line><line x1="885.1666666666667" y1="0" x2="885.1666666666667" y2="377" fill="rgb(0, 0, 0)" stroke="rgb(66, 66, 66)" stroke-width="1px" opacity="0.25"></line><line x1="973.6833333333333" y1="0" x2="973.6833333333333" y2="377" fill="rgb(0, 0, 0)" stroke="rgb(66, 66, 66)" stroke-width="1px" opacity="0.25"></line><line x1="1062.2" y1="0" x2="1062.2" y2="377" fill="rgb(0, 0, 0)" stroke="rgb(66, 66, 66)" stroke-width="1px" opacity="0.25"></line></g><g><line x1="0" y1="377" x2="1062.2" y2="377" fill="rgb(0, 0, 0)" stroke="rgb(66, 66, 66)" stroke-width="1px" opacity="0.25"></line><line x1="0" y1="342.7272727272727" x2="1062.2" y2="342.7272727272727" fill="rgb(0, 0, 0)" stroke="rgb(66, 66, 66)" stroke-width="1px" opacity="0.25"></line><line x1="0" y1="308.45454545454544" x2="1062.2" y2="308.45454545454544" fill="rgb(0, 0, 0)" stroke="rgb(66, 66, 66)" stroke-width="1px" opacity="0.25"></line><line x1="0" y1="274.1818181818182" x2="1062.2" y2="274.1818181818182" fill="rgb(0, 0, 0)" stroke="rgb(66, 66, 66)" stroke-width="1px" opacity="0.25"></line><line x1="0" y1="239.90909090909085" x2="1062.2" y2="239.90909090909085" fill="rgb(0, 0, 0)" stroke="rgb(66, 66, 66)" stroke-width="1px" opacity="0.25"></line><line x1="0" y1="205.63636363636363" x2="1062.2" y2="205.63636363636363" fill="rgb(0, 0, 0)" stroke="rgb(66, 66, 66)" stroke-width="1px" opacity="0.25"></line><line x1="0" y1="171.36363636363635" x2="1062.2" y2="171.36363636363635" fill="rgb(0, 0, 0)" stroke="rgb(66, 66, 66)" stroke-width="1px" opacity="0.25"></line><line x1="0" y1="137.09090909090915" x2="1062.2" y2="137.09090909090915" fill="rgb(0, 0, 0)" stroke="rgb(66, 66, 66)" stroke-width="1px" opacity="0.25"></line><line x1="0" y1="102.81818181818181" x2="1062.2" y2="102.81818181818181" fill="rgb(0, 0, 0)" stroke="rgb(66, 66, 66)" stroke-width="1px" opacity="0.25"></line><line x1="0" y1="68.54545454545453" x2="1062.2" y2="68.54545454545453" fill="rgb(0, 0, 0)" stroke="rgb(66, 66, 66)" stroke-width="1px" opacity="0.25"></line><line x1="0" y1="34.27272727272729" x2="1062.2" y2="34.27272727272729" fill="rgb(0, 0, 0)" stroke="rgb(66, 66, 66)" stroke-width="1px" opacity="0.25"></line><line x1="0" y1="0" x2="1062.2" y2="0" fill="rgb(0, 0, 0)" stroke="rgb(66, 66, 66)" stroke-width="1px" opacity="0.25"></line></g></g></g><g><g><line x1="0" y1="616.9090909090909" x2="1062.2" y2="616.9090909090909" fill="rgb(0, 0, 0)" stroke="rgb(153, 153, 153)" stroke-width="1.5px"></line></g></g><g><g><line x1="88.51666666666667" y1="0" x2="88.51666666666667" y2="377" fill="rgb(0, 0, 0)" stroke="rgb(153, 153, 153)" stroke-width="1.5px"></line></g></g><g><g><g><g><g><path stroke="rgb(255, 112, 67)" stroke-width="2px" d="M105.33483333333334,-25.545356461109858L105.77741666666667,2.3230641027663745L106.66258333333334,13.66237056527707L109.76066666666667,22.961052696751825L110.20325,23.669325502969112L110.64583333333334,3.3101271799232532L111.531,5.155851180139624L111.97358333333334,5.889942799841004L112.85875,-2.632303829897837L114.18650000000001,6.9206867142639235L115.51425,-3.0485445341352166L115.95683333333334,19.283169062037743L116.39941666666668,19.62138900380484L116.842,41.413361539856275L117.72716666666668,38.60750056262246L118.16975000000001,25.467196296231233L118.61233333333334,13.290229901824112L119.05491666666667,25.69176315023902L119.94008333333333,25.53171539100407L120.38266666666667,21.931656412298718L123.03816666666667,26.453190998957414L123.92333333333335,25.796057334753534L124.36591666666666,31.21292855100234L125.25108333333334,35.75002391685767L126.57883333333335,28.07607515697846L128.34916666666666,20.14940438971845L128.79175,12.869677161406376L132.775,14.880044613393554L133.21758333333335,7.581149008942891L134.54533333333336,27.812798058037924L135.87308333333334,28.18738661171161L136.31566666666666,22.924341269496924L137.20083333333335,33.40196889297739L139.41375000000002,32.083133590312265L140.29891666666666,24.11416938581394L142.51183333333333,30.65550272115737L144.28216666666668,34.239561391401054L144.72475000000003,65.81326382807715L145.60991666666666,46.31416583923171L146.49508333333333,48.05336537011529L146.93766666666667,40.35682909408475L147.38025000000002,34.80354377568203L149.15058333333334,44.06687568661771L149.5931666666667,47.872581896679065L152.24866666666668,24.234072101789412L152.69125,20.95142031254833L153.5764166666667,15.737693945910108L154.019,28.446543199572016L155.34675,26.03165204147228L158.44483333333335,26.871681964948515L159.33,39.23300796000001L159.77258333333336,39.309728671055574L160.65775,47.74133171050974L161.54291666666666,58.44594431113198L164.19841666666667,35.783178946159644L164.64100000000002,49.084310433463955L165.08358333333334,42.45434424840112L166.41133333333335,41.283533801376635L166.85391666666666,46.992541007948844L167.2965,55.31180796949879L167.73908333333335,39.349247120302906L168.62425000000002,38.57066501093462L169.06683333333336,51.67090401976655L170.39458333333334,70.41125314301952L170.83716666666666,60.37813577301601L171.27975,57.33229164086704L173.05008333333333,66.13673181199604L173.49266666666668,68.01600286283244L173.93525000000002,58.00670065776845L175.263,38.705637739604015L177.03333333333333,20.075560298375592L177.47591666666668,46.61491533815509L178.36108333333334,52.05011797585059L178.8036666666667,68.67887333469915L179.24625000000003,70.55159807953545L179.68883333333332,77.82441277519486L180.574,79.19732423011376L181.45916666666668,72.52222873363876L182.34433333333334,50.340525333195274L183.2295,59.08212501922536L184.1146666666667,65.2679884944786L184.55724999999998,70.44431842488984L185.44241666666667,66.45392077204983L185.885,85.97748832887488L186.32758333333334,77.42252048083158L186.77016666666668,82.88589243591271L187.21275,81.02096043581574L188.0979166666667,73.16285678045477L188.5405,89.04689481868624L190.31083333333333,72.67412897952961L192.96633333333335,83.81344814251464L193.85150000000002,90.6063383463603L194.29408333333333,84.99277813044135L194.73666666666665,91.32941269596947L195.62183333333334,94.56917841051161L196.06441666666666,90.75442763402006L196.94958333333335,87.59391671883695L197.39216666666667,86.06064268412595L197.83475,78.03487325640508L198.27733333333336,90.25098706280737L200.49025,102.512841169916L200.93283333333335,103.48748445693514L201.37541666666667,106.05649626581373L203.14575000000002,101.55702531533545L203.58833333333337,96.99702581826566L204.03091666666668,115.84515090189242L204.91608333333332,94.89472858115789L208.45675000000003,75.43481621745083L208.89933333333335,75.53848454823893L210.22708333333333,71.5893674699712L211.11225000000002,100.25151256697143L211.99741666666668,117.94945241524117L212.88258333333334,144.56969070469614L213.76775000000004,149.42384444171077L214.21033333333332,167.64851668283765L215.09550000000002,149.94277730359798L215.98066666666668,136.3528739682738L216.42325,126.11825263712058L217.3084166666667,131.14519933264128L219.52133333333333,155.27788389672335L219.96391666666668,171.7268161028323L220.4065,175.78642950787693L220.84908333333334,159.82705209129512L224.38975,160.71586156552922L225.27491666666668,159.6131476138531L225.7175,142.19961315133077L227.04525,136.61293157182874L227.48783333333336,146.28289597395883L228.81558333333334,162.85828203114713L229.70075,187.39557730917568L230.14333333333335,177.2644942508008L231.47108333333335,195.2162958435824L232.35625000000002,195.16731151764347L234.56916666666666,205.38099754998484L235.01175,180.66764087278375L235.45433333333335,199.09166634233756L235.89691666666667,171.27197361299756L238.10983333333334,184.03570166685526L238.55241666666666,187.13110974162382L239.43758333333332,185.7385811274838L240.76533333333333,174.9628467241283L241.20791666666668,185.77124291156048L241.65050000000002,187.26771314167837L242.09308333333334,211.39444659810846L242.97825000000003,185.69262225046893L243.86341666666667,186.81339979646776L244.74858333333333,212.86310399080406L245.19116666666667,200.8988600609281L245.63375000000002,166.6755680410069L247.40408333333335,185.21619075129254L249.17441666666667,204.22399503181632L249.617,191.34396940366395L250.05958333333334,170.88003996982118L250.50216666666668,203.76996091697075L250.94475,204.13717312846836L251.38733333333334,214.40203193078077L251.8299166666667,216.5772316346093L254.48541666666668,211.50906677021092L255.8131666666667,200.15816500442065L256.25575,212.02395862949177L259.7964166666667,241.14572355787064L261.56675,246.96600915629273L262.00933333333336,241.17645203093218L262.45191666666665,235.82035478310954L262.8945,224.6833573709449L263.33708333333334,226.29828387301473L263.7796666666667,223.8442357105636L264.6648333333334,218.0689220176439L265.55,245.53309406155515L266.4351666666667,247.15978579220769L266.87775,250.8602279671071L267.7629166666667,249.5113381425273L269.53325,238.82771269775003L269.97583333333336,246.83481793146902L271.30358333333334,249.1025110862241L271.7461666666667,238.00794455678596L272.18874999999997,244.45165472138177L272.6313333333333,262.82915526627994L273.95908333333335,261.6630237633501L275.28683333333333,233.54151212670402L275.7294166666667,250.68334138527672L277.05716666666666,238.25757164385467L277.49975,247.05488295386706L279.2700833333334,232.38138581695077L279.7126666666667,231.40672253652113L281.483,211.82893741234898L281.92558333333335,214.9297634109325L282.36816666666664,211.1618332385428L282.81075,224.1315425846441L283.25333333333333,235.25408771876914L283.6959166666667,237.94903076978625L284.1385,240.25303571560875L285.02366666666666,258.96658052343014L285.46625,251.8189359939731L285.90883333333335,252.86055692761047L286.3514166666667,257.5720394524758L288.12175,268.42735854062755L288.56433333333337,245.7649780100077L289.0069166666667,258.07236443346403L289.44950000000006,248.70362365150578L289.89208333333335,271.5231347230052L290.77725,271.7525844574881L291.6624166666667,277.7961595449124L292.5475833333333,262.51331794221846L292.99016666666665,277.4362966860187L294.3179166666667,251.9417400484376L294.76050000000004,276.4628286522953L295.2030833333333,282.2354588692059L296.08825,276.01016756638273L296.9734166666667,241.0728596926755L298.74375000000003,226.42473050947237L299.1863333333334,245.19200482311447L300.5140833333333,253.543974641111L300.95666666666665,256.4325423216068L301.39925,253.32047194420028L301.84183333333334,257.0145694862528L302.2844166666667,275.4304592141127L302.727,293.9529979121402L303.1695833333333,277.0080822663354L304.05475,289.7318903528848L304.49733333333336,275.91252902180054L304.9399166666667,266.5448396603254L305.3825,276.70580378228897L306.2676666666667,267.64822615580084L307.5954166666667,280.1130178036254L309.36575000000005,263.4259211013619L310.6935,278.5046453437423L311.1360833333333,260.69772057735577L311.57866666666666,264.70827666577435L312.90641666666664,244.4873104465138L314.2341666666667,218.88423718156298L314.67675,234.11220515454932L315.1193333333334,262.8102021626648L315.56191666666666,270.47451539327983L316.0045,258.52087002580436L316.44708333333335,249.5113107624031L317.7748333333334,252.6394377518033L318.2174166666667,261.4042896381925L318.66,256.3403726939234L319.10258333333337,253.58476429073704L320.43033333333335,263.3605580447888L323.52841666666666,245.5002971373175L324.8561666666667,250.25271841127176L325.29875000000004,258.2151603994713L326.1839166666667,261.30187854808787L326.6265,281.40735716498136L327.06908333333337,276.5247771651304L327.5116666666667,266.28816614919526L327.95425000000006,272.71435773270224L328.8394166666667,287.3023214875925L329.28200000000004,279.4186779950529L329.7245833333333,280.098410142764L330.60975,295.7558212749715L331.0523333333333,271.25991455640633L332.38008333333335,273.30127615017716L333.26525,274.9703805799448L334.1504166666667,294.0834134660352L334.593,272.74054771479734L335.03558333333336,290.8623499913565L337.6910833333334,281.7994241827134L338.1336666666667,284.03187862551994L338.57625,285.8919664570877L340.34658333333334,293.14094637871375L341.6743333333333,287.19979905510303L342.5595,291.71927636410317L343.88725,275.2131516852166L345.6575833333334,295.8356020488524L347.4279166666667,312.7452055346967L347.87050000000005,308.36005765444594L348.3130833333334,279.3726760066163L349.19825,307.04631956860544L350.08341666666666,287.50473069109506L350.526,290.2430702017317L350.96858333333336,291.502384461231L351.85375,266.4956486187163L352.7389166666667,277.7271533986634L353.1815,282.391186698934L353.6240833333334,272.86914373697294L354.06666666666666,280.71367232467696L354.95183333333335,278.66666750318655L355.3944166666667,287.6603204891223L355.83700000000005,292.33611810281343L356.7221666666667,291.75369631855006L358.0499166666667,284.37588539540303L358.9350833333333,283.53283343478483L360.26283333333333,281.35812149232567L360.7054166666667,314.9685927454153L361.5905833333333,293.47718046393567L362.47575,269.1942021701295L363.3609166666667,272.8056698841894L364.24608333333333,263.2683391041836L364.6886666666667,262.1410621932424L366.0164166666667,273.2654590034705L366.90158333333335,272.29742429075696L367.3441666666667,255.49930989720528L369.11449999999996,242.96352466873643L370.88483333333335,270.11054736606394L372.2125833333333,277.09900671165275L372.6551666666667,288.37102841091803L373.09775,263.6754247070872L373.54033333333336,275.6531599659093L373.9829166666667,281.47267662873077L374.4255,278.7146431431403L376.1958333333334,282.5154022676161L377.081,287.5550535685719L377.52358333333336,309.4555790610525L377.9661666666667,293.53168023532925L378.40875000000005,285.0469255262989L378.85133333333334,297.3068664093351L380.1790833333333,290.6622844404247L381.06425,284.24246238865055L384.1623333333334,300.884999894648L385.49008333333336,284.1265361167648L387.70300000000003,287.1930878250937L388.1455833333334,297.2612928053495L388.58816666666667,304.52030476715527L389.91591666666665,329.7127388870987L390.80108333333334,319.40960697108505L391.2436666666667,311.11075994833703L391.68625000000003,307.96674827884993L393.014,288.28003049203755L395.2269166666667,272.1081777200911L396.1120833333334,292.170357509331L396.99725000000007,289.5372312330461L397.43983333333335,291.29023058899867L398.32500000000005,300.2878974159062L399.65274999999997,285.63929590027163L400.0953333333333,298.5627609279193L400.9805,296.86233027442375L402.75083333333333,300.5873892764096L403.1934166666667,308.5562351240803L404.07858333333337,307.8533313395488L405.40633333333335,321.2161202720132L406.29150000000004,301.81558893379616L407.17666666666673,314.119441277779L407.61925,318.25718431456335L408.06183333333337,288.59323071383227L408.947,273.3681665010727L409.83216666666664,270.2181963379938L410.27475,281.2480305607392L410.71733333333333,293.14582832904296L411.1599166666667,281.90603906174573L411.6025,276.34243790716516L412.48766666666666,295.8796400441454L412.93025,311.1645712806473L413.37283333333335,336.4163064322178L415.58575,328.9165961491756L416.02833333333336,313.8222149915295L417.3560833333334,322.66468755426604L417.7986666666667,328.1988681751211L418.24125,318.31608305072194L418.6838333333333,337.2666575749622L421.7819166666667,340.75218252181446L423.10966666666667,325.3945016396229L423.55225,321.172873070316L424.4374166666667,310.59378375981294L426.6503333333334,308.5367701476891L427.0929166666667,317.65444703907787L427.53550000000007,298.99228129176726L428.86325,291.5256826830304L429.30583333333334,298.30607235798163L430.6335833333333,293.4910244118399L431.96133333333336,296.21979061302L432.4039166666667,301.0274482222584L433.28908333333334,285.6295217350074L433.7316666666667,303.84833964664523L434.17425000000003,278.1681265324607L434.6168333333334,278.74707529324183L435.0594166666667,287.9882508771836L437.71491666666674,300.605103835352L439.04266666666666,268.60768673386167L439.92783333333335,280.0460821483492L440.813,285.43131525643065L442.58333333333337,273.13828008424224L443.02591666666666,282.46990527432655L444.79625000000004,296.0321768884965L445.2388333333334,307.0726233114773L445.6814166666667,280.410589617435L446.124,282.85103807131713L447.45175000000006,294.59252327468334L450.99241666666666,299.86866455275896L451.435,289.73643269050655L452.3201666666667,291.2619743179158L453.2053333333334,310.4085375511627L454.0905,297.687531170432L454.53308333333337,278.5085355514302L454.9756666666667,275.6190339132556L455.41825000000006,293.4719699287875L457.1885833333334,289.67220378306286L457.6311666666667,277.2400909663626L458.5163333333333,308.9276305784706L458.95891666666665,321.3257767820854L459.4015,312.7909478767866L460.2866666666667,298.8500224669722L460.72925000000004,303.265203718269L462.057,309.5834674165013L462.9421666666667,324.37590911918875L465.1550833333334,321.6403068674012L465.5976666666667,311.67584414751116L466.9254166666667,311.74481035047154L468.2531666666667,292.3136891627893L469.58091666666667,299.191140571239L470.46608333333336,271.94679910860424L471.79383333333334,291.633835114209L472.2364166666667,274.0725769394555L474.00675,288.55630271073414L474.44933333333336,310.7390859239744L478.87516666666664,310.73112198465475L479.76033333333334,313.1533779340915L480.2029166666667,318.42976752420583L480.6455,321.116512429987L481.0880833333334,327.27257790213395L481.97325,334.73068165047675L482.8584166666667,337.2623541051153L483.7435833333334,306.93769926067944L485.07133333333337,307.96019445798845L485.95650000000006,321.66555366969243L486.3990833333334,313.0305877634707L487.72683333333333,322.1226824131719L488.1694166666667,321.39546966161635L489.0545833333333,325.33725137909397L489.93975,317.25023942286407L490.38233333333335,303.3087531610191L490.8249166666667,309.9132164018938L491.71008333333333,315.01307155367175L492.1526666666667,311.98191876110207L493.4804166666667,300.9596484833763L495.25075000000004,302.8304512916471L495.6933333333334,312.93736669260323L496.5785000000001,312.80324318475004L497.46366666666665,314.6546662000803L499.234,329.69465791110485L499.6765833333333,335.1088948424118L500.1191666666667,318.5780727837846L500.56175,317.2339388355235L501.00433333333336,311.70329645151884L501.4469166666667,311.38203744867974L501.8895,303.04937204262063L502.7746666666667,310.994740242278L504.545,293.2011998187233L505.4301666666667,294.63030765163904L505.87275000000005,296.6482703202356L507.2005,294.5386666484707L508.97083333333336,315.1846393515217L510.29858333333334,328.9577164469254L511.6263333333334,309.3469443906384L512.0689166666666,317.63000340504755L513.83925,328.3260336505697L514.7244166666667,300.5344805460658L515.167,273.59736766141305L516.0521666666667,297.3739551451738L516.9373333333334,317.69435812568815L517.3799166666666,307.82015863814013L518.7076666666667,322.8027752558418L520.9205833333334,339.219182497373L521.80575,326.3892593420212L522.2483333333333,314.5166439858529L523.1335,311.37989542658755L523.5760833333334,328.01807732123234L525.3464166666666,322.31680190678026L526.2315833333333,305.9479069391551L527.11675,292.98430570080217L528.0019166666667,300.3403631954072L528.8870833333334,305.0026980074723L529.3296666666668,323.4558393075102L529.7722500000001,335.99175149231803L530.6574166666667,315.2831655298179L531.1,310.53311846201836L532.42775,329.92681504433665L532.8703333333334,314.25540988911195L533.3129166666666,315.6286380409972L533.7555,273.4866783256831L534.1980833333333,287.1248014622955L536.4110000000001,297.9362291465798L537.2961666666667,310.98795368712916L538.1813333333334,337.75107520431794L538.6239166666667,312.547983851062L539.0665,314.19624885788255L541.2794166666667,294.1555435839445L543.04975,326.24389351289193L543.9349166666667,316.1257116435267L544.3774999999999,321.12677125075334L547.033,312.7296340093437L547.4755833333334,327.54437974517805L547.9181666666667,315.61130889419957L548.36075,312.7492196309602L548.8033333333334,310.2314037129467L550.5736666666667,320.6490794360477L551.4588333333334,347.9341129895677L551.9014166666666,346.64396246564894L554.5569166666667,321.9270084051748L554.9995,336.91883593056986L556.32725,324.4081863413065L557.2124166666666,329.0145217155754L557.6550000000001,322.5129206230897L558.0975833333333,317.58692506311826L558.98275,317.1038595876604L560.3105,306.33753994842334L560.7530833333334,305.864409924171L561.1956666666666,299.51467434746775L562.0808333333333,302.0549031528615L562.5234166666667,326.7789818544855L562.966,289.09605451657757L563.4085833333334,290.4875863327645L563.8511666666667,312.18471617305653L564.29375,308.03818630242785L565.6215,312.92995750996675L566.0640833333334,319.2940301705628L566.94925,339.4210075654849L567.3918333333334,321.515290752871L567.8344166666667,290.5526214520528L569.1621666666667,266.0796392011877L569.6047500000001,293.9336298971317L570.0473333333333,272.8242350283447L571.8176666666667,287.71092578332537L574.91575,317.7418068724167L575.8009166666667,321.18164005523494L576.6860833333334,350.6909957978407L577.1286666666667,319.20494361566455L577.57125,308.3135592213091L578.8990000000001,315.8808356110561L579.3415833333333,334.17164217248495L579.7841666666667,334.1652341880389L580.6693333333333,340.76707274576677L581.1119166666667,321.286259089528L581.9970833333334,309.4540303501651L582.88225,319.6273859603016L584.21,326.693188717641L585.0951666666666,325.55425231659706L585.5377500000001,307.4713143755345L586.8655,291.7137814973854L587.3080833333333,307.72600736382714L588.19325,307.6336301954194L588.6358333333334,329.97391405922525L589.0784166666667,324.97814239125137L589.5210000000001,349.4856955006272L589.9635833333334,355.9560864499485L590.84875,358.4581552041879L591.2913333333333,340.93781807978814L591.7339166666667,324.3474523330593L593.0616666666667,316.3764618285868L594.3894166666666,310.7105058395435L595.7171666666667,316.187194889238L596.15975,321.39928750558096L597.0449166666667,318.7443914846926L597.4875000000001,290.31076895973814L597.9300833333333,293.8485641531505L598.3726666666668,308.204884627602L598.81525,300.59621094197337L599.2578333333335,304.9125398331519L602.3559166666668,279.7489884488691L603.2410833333333,294.52658358119834L604.12625,303.1071875940301L605.0114166666667,319.80640329748894L605.454,317.2760291100283L608.1095,309.52714099454954L608.5520833333334,313.3271390403665L609.4372500000001,313.88967081990523L609.8798333333334,319.5899763323792L610.3224166666666,320.22257687393756L612.09275,312.994592625002L612.9779166666666,296.51388726771415L613.8630833333333,304.0028797103849L614.74825,327.93986618547416L615.1908333333334,329.49761169840883L615.6334166666667,330.4707783019488L616.9611666666667,308.9602340975425L617.4037500000001,308.0615748779841L617.8463333333334,313.06362599885216L618.7315000000001,316.2362487437038L619.1740833333333,322.15110778233566L620.5018333333333,340.6642629979051L620.9444166666667,330.80231360661963L622.2721666666666,340.3901329022905L622.7147500000001,349.3111386982141L623.1573333333333,319.3060765286084L624.0425,321.544504253527L625.8128333333333,314.225131815838L626.2554166666667,324.6750812664812L626.698,336.68219525536097L628.0257500000001,335.6547087388267L630.2386666666667,366.839270222877L631.1238333333333,361.120087545332L632.4515833333334,341.0565850135079L632.8941666666667,322.65618914561L634.2219166666666,312.5896873908486L634.6645000000001,342.62404652947566L636.8774166666667,338.3945309257823L637.7625833333334,308.87341751239245L638.2051666666667,311.4080896233412L638.64775,307.15612189988553L639.0903333333334,311.60545965282637L639.5329166666667,310.73980154055556L639.9755,304.8363422805831L640.4180833333334,294.6597715312915L641.7458333333333,306.0203604451171L642.1884166666667,283.5618692336563L642.631,321.50918456142017L643.0735833333334,343.93240360697484L643.95875,316.5666675649362L644.8439166666667,337.80686484307074L645.2865,341.61374666248145L646.6142500000001,330.37831383482876L647.0568333333333,321.7891983752353L648.3845833333335,316.9859490861347L649.7123333333334,327.2073177054164L651.4826666666667,337.544690790507L653.6955833333333,307.9462074415284L654.1381666666667,318.01031403834367L654.58075,324.0301638776834L656.3510833333333,319.556134915799L657.6788333333334,347.7499175711627L659.89175,347.46230444846213L661.2195,330.14352657627745L662.5472500000001,353.5089805475953L663.4324166666668,354.984061028052L663.875,339.46368077670303L665.20275,338.08771861467716L666.9730833333334,332.54108437929017L668.7434166666668,330.47510513574866L670.51375,331.58551331109396L670.9563333333334,347.43955537254834L673.16925,334.3018339083019L674.0544166666667,337.16551256428875L674.4970000000001,303.693834488369L675.3821666666668,314.5475583744346L675.82475,324.3151553034527L676.7099166666667,311.5031620673546L679.808,305.3558227763084L683.7912500000001,306.88384212797655L684.2338333333333,294.295571283429L685.119,295.26975455258224L685.5615833333334,288.0196489367231L686.8893333333333,295.8396402196818L687.3319166666668,318.85182552751667L688.2170833333334,331.4745662263222L689.9874166666666,336.7329427576231L690.8725833333333,318.2518665418724L692.6429166666667,351.5790820939037L693.0855,336.0704017089151L693.5280833333334,328.8818345008643L693.9706666666667,325.7913835662162L694.4132500000001,315.64098494916135L696.1835833333333,301.77642589176713L696.6261666666668,302.63056148345646L697.5113333333334,308.0370607299203L697.9539166666667,320.27326291229804L699.72425,308.93608376312864L701.9371666666667,317.80851485415735L702.3797500000001,311.45941754196383L704.1500833333334,300.58986414787836L705.4778333333334,307.6854304110431L707.2481666666667,304.4745618342793L708.5759166666667,341.1712584876678L709.9036666666667,335.96214023622747L715.65725,342.73531117510885L716.0998333333334,337.9813919106359L717.8701666666666,356.61171900376183L718.31275,343.9544708309333L722.296,323.26108547208185L722.7385833333334,332.18858460823634L724.5089166666668,354.00073316240275L725.3940833333334,352.97434477154974L725.8366666666667,342.93506100697414L726.27925,342.036371105451L726.7218333333334,332.93885439357564L728.0495833333333,319.81935161402845L728.93475,340.2376621758728L729.3773333333334,343.10114313338926L730.2625,319.30099903720185L731.1476666666667,338.7644857249223L731.59025,336.8640357001109L732.4754166666667,345.2814047638845L732.918,350.0571821524175L733.3605833333334,341.02432084478136L733.8031666666667,353.72057042358637L734.24575,345.01986646880965L734.6883333333334,348.14097981590186L735.1309166666667,334.61830896373215L735.5735000000001,310.60058440327197L736.4586666666668,319.55083212264833L739.5567500000001,303.6728171191936L740.8845,322.7430062234704L741.3270833333333,325.450946995038L742.21225,319.4855961708915L744.4251666666667,303.94917587256214L744.8677500000001,304.6382141123975L745.3103333333333,340.3796655617975L747.0806666666667,322.27331737990295L747.9658333333334,331.0767222141494L748.4084166666667,337.9813720640701L749.7361666666667,361.2953151726114L750.17875,315.5937014628392L751.9490833333333,330.9930589366954L752.3916666666668,335.13791230948954L752.83425,332.43271089031157L753.7194166666667,324.03812827022097L756.8175000000001,309.86818728602117L757.2600833333333,324.11120498143435L757.7026666666667,323.70019255312513L758.5878333333333,309.0376038250893L759.473,307.47276335560883L759.9155833333334,288.2432076224629L763.0136666666667,304.77419248590894L764.3414166666668,332.4335257405965L765.2265833333335,330.512342932789L767.8820833333333,327.9076094168236L769.2098333333333,339.02216900758265L769.6524166666667,334.83158477170656L770.9801666666667,307.17259950651754L773.6356666666668,323.13606392435287L774.07825,332.5028339223496L775.4060000000001,341.38315310023455L775.8485833333334,328.5678901419664L776.2911666666668,312.95331780478017L777.1763333333333,319.1391791928959L778.0615,315.9282376371767L780.2744166666668,327.09083011167917L781.1595833333334,345.4055322834548L781.6021666666667,331.86191745408917L782.04475,332.636157257933L782.9299166666667,342.65127208337805L783.8150833333334,325.08028912303763L784.2576666666666,332.30080640821944L784.7002500000001,332.13534755360115L785.1428333333333,352.0540044174202L786.4705833333333,353.61366654808785L787.35575,351.1037109890473L788.2409166666666,347.41010476777666L788.6835000000001,359.74727293032237L789.1260833333333,356.3131088375807L790.4538333333334,355.2979345124275L792.66675,364.3108012861253L794.8796666666667,357.8804321009931L795.32225,349.2588592361818L795.7648333333334,340.3857098010752L797.5351666666667,349.0948800621429L797.97775,344.1808762472217L798.4203333333334,330.2066564773147L801.5184166666668,311.1911340017799L801.961,312.0336776021205L802.8461666666667,311.7252405441561L803.28875,321.2863690957392L804.1739166666667,328.8868522793304L806.8294166666668,324.4339293135988L807.7145833333333,331.36782073558277L808.59975,325.0343521743417L809.0423333333334,325.5169810046033L810.8126666666667,340.4987933607645L812.5830000000001,321.1134839951408L813.0255833333333,325.45683212872814L813.4681666666668,298.28081482635906L814.7959166666667,310.86426771654686L815.2385,311.2715513439146L817.4514166666667,335.79531022983707L817.894,348.4137203822662L818.7791666666667,350.37947352491415L819.6643333333333,351.0576434338031L820.1069166666667,336.87580743618076L820.5495,340.50010424042824L820.9920833333334,354.0071016317259L821.8772500000001,359.8457297510567L822.7624166666667,367.23890607732693L824.5327500000001,358.5548243202728L825.4179166666668,326.81884748533406L826.3030833333335,325.0694181673881L827.6308333333334,330.68044464200585L828.0734166666666,325.71147348041336L829.84375,329.00530406838385L831.1715,318.7887009398845L832.0566666666667,325.2015091667597L832.49925,327.0814333449183L833.3844166666667,341.64347844445797L834.7121666666668,343.91727553300694L835.15475,332.79952062011796L835.5973333333334,305.7833989128478L836.0399166666667,325.061526941793L838.2528333333333,320.6934433938647L838.6954166666667,316.28649584692954L839.138,314.51418387817506L840.0231666666667,310.3257819583193L840.4657500000001,296.81088144493066L840.9083333333333,308.13073400369103L841.3509166666668,335.3466237159312L842.2360833333335,352.1055161340081L843.12125,346.62269553061765L844.4490000000001,362.3676718959379L845.3341666666666,357.14327569972846L845.7767500000001,358.2361838069206L846.2193333333333,353.7572101230681L846.6619166666667,348.3931352475982L849.3174166666666,327.7102589714349L849.7600000000001,343.98179329301024L851.08775,320.2391285406005L851.5303333333334,327.76692524915916L851.9729166666667,342.46764258526986L852.4155000000001,336.83820552165696L854.6284166666667,346.9290675444436L858.1690833333333,340.2459138813525L858.6116666666667,311.2113900098584L860.3820000000001,331.1805814648065L861.2671666666666,308.98225989118663L862.5949166666668,297.17817675630073L863.0375,303.08419807995335L863.4800833333334,320.6677264791699L863.9226666666667,317.8645339523753L864.8078333333334,321.5118537082727L865.2504166666668,328.0180347262675L866.5781666666667,332.2440911731254L868.7910833333333,331.22924122925474L869.2336666666667,322.73551149524053L870.1188333333334,308.8327935288845L870.5614166666667,308.1848486925011L871.4465833333334,290.469458654324L874.5446666666668,310.7607762782572L874.98725,325.18970558240625L875.4298333333335,329.4112647366203L876.7575833333334,339.7208244102025L878.5279166666667,339.01183506502383L878.9705,350.44871762188484L879.4130833333334,366.57459887955093L879.8556666666667,347.7486024705001L880.7408333333334,345.113546137819L881.1834166666667,339.97487867815397L882.0685833333334,327.2782784799956L882.9537500000001,320.1416134482213L883.8389166666667,310.5761708698569L884.2815,291.5989411912228L885.60925,312.49732152906614L886.4944166666667,331.8599522781172L886.937,346.2474308977874L887.3795833333334,343.1984881199158L889.1499166666666,343.53199643657604L890.0350833333333,349.3738545149164L891.8054166666667,359.24682016408207L892.6905833333334,348.4077358091925L893.5757500000001,331.96476251805694L894.0183333333334,325.96560820892375L895.7886666666667,336.18928869123033L897.1164166666667,358.507263887526L897.559,349.2835044619503L898.4441666666667,353.81907031605294L898.88675,345.92390684992944L899.7719166666667,348.8720047798046L900.2145,355.29787417969476L900.6570833333334,366.3228058749627L901.5422500000001,350.6690850565439L901.9848333333333,346.77464448433386L902.4274166666668,345.44967955742857L905.0829166666666,341.15286844120266L905.5255000000001,355.8233612518984L905.9680833333333,349.24039323522965L906.4106666666668,347.2719047813727L906.85325,360.8786667923507L908.181,346.856279673057L909.0661666666667,364.0899162487902L912.16425,345.8851182968177L913.9345833333334,341.88375821990496L914.3771666666668,336.9730921919292L914.81975,335.1186337150585L915.2623333333333,320.32783350755926L917.0326666666666,325.6708793854235L917.4752500000001,348.8755346946863L917.9178333333333,346.5411749327314L918.3604166666668,378.86783873864437L918.803,369.07157116484245L919.6881666666667,355.31954811424964L921.0159166666667,369.6071558077338L922.3436666666666,354.8021195805681L922.7862500000001,357.8196890226426L923.6714166666668,367.34757241436375L924.5565833333333,345.10873151319345L925.44175,336.5222086372529L927.6546666666667,348.1622891799325L929.4250000000001,364.200700821296L930.75275,353.9323229984788L932.5230833333334,379.1150617586473L933.4082500000001,360.1051560870945L933.8508333333334,347.0543880926129L934.2934166666668,336.170263955442L935.6211666666667,323.380812471776L936.9489166666667,335.5556509582756L937.8340833333334,327.44611079570456L940.4895833333334,330.00231304485413L940.9321666666667,325.53497488385267L941.3747500000001,337.01890311996726L942.2599166666668,329.5030761252568L942.7025,329.4480741880048L944.0302500000001,326.948971942765L945.3580000000001,304.356380180485L945.8005833333333,309.09656726640117L947.1283333333334,300.491558346173L947.5709166666667,327.42805330337336L948.0135,332.4486811357161L948.4560833333334,334.6833586463691L949.7838333333334,341.4170871857241L950.6690000000001,319.8943948741273L951.99675,323.1074129795523L952.4393333333334,328.40424859637784L953.3245000000001,332.6777230334621L954.6522500000001,326.8594728998474L956.4225833333334,347.3731203968604L956.8651666666667,350.149180474325L957.30775,344.4583746111872L957.7503333333333,321.5423332012854L958.1929166666667,323.59415041494793L959.0780833333334,322.49844321444505L959.5206666666667,323.82022758027836L959.9632500000001,322.35306371380534L960.4058333333334,313.39103472472647L963.0613333333333,337.002651625685L963.9465,344.6952096284483L964.3890833333334,348.5544702718019L964.8316666666667,344.5618668729769L965.2742499999999,346.4153655728523L965.7168333333334,354.17033552239735L966.1594166666666,357.0684179253006L966.6020000000001,336.6905728733153L967.4871666666668,342.54284910566L968.3723333333334,331.6358067113L968.8149166666667,338.34009449642474L969.2575,315.3504839564331L970.1426666666667,327.8608942881207L970.58525,337.2812406139199L971.0278333333334,342.8492436272603L971.9130000000001,347.22800726505693L975.0110833333334,341.5633946152916L981.20725,352.95158327068145L981.6498333333334,353.17634539652835L983.4201666666667,366.1292133273529L983.86275,347.44156895637684L984.3053333333334,352.0331617637991L985.1905,377.8794710597651L985.6330833333333,373.03390261679255L986.51825,355.80795712505846L987.8460000000001,354.0332175187554L988.2885833333333,339.7896593929158L989.17375,322.23116962329414L989.6163333333334,288.53997312587745L990.0589166666667,330.0184588067232L990.9440833333333,347.75515467013815L991.82925,328.34407279434254L992.2718333333335,317.82070974272324L993.1570000000002,305.5966274962534L993.5995833333334,319.7858274724419L994.9273333333333,325.9615432490527L995.3699166666668,333.3710679485896L995.8125,343.6088134062262L998.0254166666667,349.74625559141253L998.468,353.6622962249356L998.9105833333334,347.1840889899482L999.3531666666667,340.83894882708273L1003.779,340.6943437615331L1004.2215833333333,357.51846674979953L1005.10675,334.751838416898L1006.8770833333333,350.31605236755075L1008.6474166666667,371.29804703717286L1009.09,352.4948267331846L1010.8603333333334,326.2121864476117L1011.3029166666666,346.59399911436947L1012.1880833333333,359.69064519373325L1012.6306666666668,333.0082642843751L1013.5158333333334,345.29360363870705L1013.9584166666667,362.08294666566L1014.401,366.2307502293224L1014.8435833333334,354.831534789367L1016.1713333333333,335.2228508033535L1016.6139166666667,336.6578043180162L1017.0565,349.9275052647807L1017.4990833333334,359.5315192802993L1018.3842500000001,364.9231161405104L1018.8268333333333,357.3040165544859L1019.712,331.8637845345758L1020.1545833333334,332.6410117697318L1020.5971666666667,342.7707967696818L1021.0397500000001,347.188064484816L1021.4823333333334,334.06205246444364L1022.3675000000001,329.17059572694194L1022.8100833333333,304.2521287624036L1024.5804166666667,332.43417809369316L1025.023,341.66746154350784L1026.7933333333333,345.20225467906766L1027.2359166666668,339.3777863073837L1028.1210833333334,354.55659637220015L1028.5636666666667,355.46162573155516L1029.0062500000001,335.1038724445345" style="fill: none;" fill="none"></path></g></g></g></g><g opacity="0.2"><g><g><g><path stroke="rgb(255, 112, 67)" stroke-width="2px" d="M103.56450000000001,-9.584089430895673L104.89225,12.295793923464684L105.33483333333334,-44.05775603381066L105.77741666666667,44.10603997924114L106.66258333333334,30.66653184457261L109.76066666666667,36.9067149595781L110.20325,24.731626814061936L110.64583333333334,-27.226809393275854L111.531,7.924335956573486L111.97358333333334,6.991056073795681L112.85875,-15.41550551761282L114.18650000000001,21.250059366226196L115.51425,-18.00232054970478L115.95683333333334,52.78064422173936L116.39941666666668,20.12871805104342L116.842,74.10128688812256L117.72716666666668,34.39871168136597L118.16975000000001,5.756747159090906L118.61233333333334,-4.975215651772186L119.05491666666667,44.294060555371374L119.94008333333333,25.291643771258265L120.38266666666667,16.531568202105433L123.03816666666667,33.23549268462444L123.92333333333335,24.810356855392456L124.36591666666666,39.33823529156771L125.25108333333334,42.55566692352295L126.57883333333335,16.56515205990187L128.34916666666666,8.25939826531846L128.79175,1.9500863335349647L132.775,17.89559578895569L133.21758333333335,-3.3671943924643246L134.54533333333336,58.1602716229179L135.87308333333334,28.74926944212482L136.31566666666666,15.029773256995473L137.20083333333335,49.11841032721782L139.41375000000002,30.104880636388597L140.29891666666666,12.160723079334621L142.51183333333333,40.46750272404066L144.28216666666668,39.61564939672297L144.72475000000003,113.17381748286161L145.60991666666666,17.065518856048584L146.49508333333333,50.66216466643596L146.93766666666667,28.81202468005094L147.38025000000002,26.473615798083216L149.15058333333334,57.961873553015984L149.5931666666667,53.581141211769825L152.24866666666668,-11.223692590540113L152.69125,16.027442628687087L153.5764166666667,7.917104395953088L154.019,47.50981708006427L155.34675,22.409315304322696L158.44483333333335,28.131726850162867L159.33,57.77499695257709L159.77258333333336,39.424809737639016L160.65775,60.38873626969079L161.54291666666666,74.5028632120653L164.19841666666667,1.7890308987010761L164.64100000000002,69.0360076644204L165.08358333333334,32.509394970807165L166.41133333333335,39.52731813083998L166.85391666666666,55.55605181780729L167.2965,67.79070841182363L167.73908333333335,15.40540584650907L168.62425000000002,37.40279184688223L169.06683333333336,71.32126253301448L170.39458333333334,98.52177682789889L170.83716666666666,45.32845971801067L171.27975,52.76352544264362L173.05008333333333,79.34339206868952L173.49266666666668,70.83490943908691L173.93525000000002,42.992747350172586L175.263,9.754043362357411L177.03333333333333,-7.869555863467085L177.47591666666668,86.42394789782438L178.36108333333334,60.20292193239385L178.8036666666667,93.62200637297198L179.24625000000003,73.36068519678983L179.68883333333332,88.73363481868398L180.574,81.25669141249224L181.45916666666668,62.5095854889263L182.34433333333334,17.067970232530094L183.2295,72.1945245482705L184.1146666666667,74.54678370735863L184.55724999999998,78.20881332050674L185.44241666666667,60.46832429278982L185.885,115.26283966411245L186.32758333333334,64.59006870876662L186.77016666666668,91.08095036853445L187.21275,78.22356243567035L188.0979166666667,61.37570129741324L188.5405,112.87295187603347L190.31083333333333,48.11498022079468L192.96633333333335,100.52242688699205L193.85150000000002,100.79567365212877L194.29408333333333,76.57243780656297L194.73666666666665,100.83436454426162L195.62183333333334,99.42882698232478L196.06441666666666,85.0323014692827L196.94958333333335,82.85315034606239L197.39216666666667,83.76073163205928L197.83475,65.99621911482379L198.27733333333336,108.57515777241103L200.49025,120.9056223305789L200.93283333333335,104.94944938746366L201.37541666666667,109.91001397913152L203.14575000000002,94.80781888961792L203.58833333333337,90.157026572661L204.03091666666668,144.11733852733266L204.91608333333332,63.46909510005606L208.45675000000003,46.24494767189026L208.89933333333335,75.6939870444211L210.22708333333333,65.66569185256958L211.11225000000002,143.2447302124717L211.99741666666668,144.49636218764564L212.88258333333334,184.50004813887855L213.76775000000004,156.7050750472329L214.21033333333332,194.98552504452792L215.09550000000002,123.38416823473844L215.98066666666668,115.96801896528765L216.42325,110.76632064039057L217.3084166666667,138.68561937592247L219.52133333333333,191.4769107428464L219.96391666666668,196.40021441199565L220.4065,181.87584961544383L220.84908333333334,135.88798596642235L224.38975,162.04907577688044L225.27491666666668,157.95907668633896L225.7175,116.07931145754728L227.04525,128.23290920257568L227.48783333333336,160.78784257715398L228.81558333333334,187.7213611169295L229.70075,224.20152022621846L230.14333333333335,162.06786966323853L231.47108333333335,222.1439982327548L232.35625000000002,195.09383502873507L234.56916666666666,220.70152659849686L235.01175,143.59760585698214L235.45433333333335,226.7277045466683L235.89691666666667,129.54243451898748L238.10983333333334,203.1812937476418L238.55241666666666,191.7742218537764L239.43758333333332,183.64978820627385L240.76533333333333,158.79924511909485L241.20791666666668,201.9838371927088L241.65050000000002,189.51241848685527L242.09308333333334,247.58454678275368L242.97825000000003,147.13988572900945L243.86341666666667,188.49456611546603L244.74858333333333,251.9376602823084L245.19116666666667,182.95249416611412L245.63375000000002,115.34063001112506L247.40408333333335,213.02712481672114L249.17441666666667,232.73570145260203L249.617,172.0239309614355L250.05958333333334,140.1841458190571L250.50216666666668,253.10484233769503L250.94475,204.68799144571477L251.38733333333334,229.7993201342496L251.8299166666667,219.84003119035202L254.48541666666668,203.90681947361338L255.8131666666667,183.1318123557351L256.25575,229.82264906709844L259.7964166666667,284.82837095043874L261.56675,255.69643755392593L262.00933333333336,232.49211634289134L262.45191666666665,227.78620891137558L262.8945,207.97786125269803L263.33708333333334,228.72067362611944L263.7796666666667,220.16316346688706L264.6648333333334,209.40595147826454L265.55,286.729352127422L266.4351666666667,249.59982338818637L266.87775,256.4108912294561L267.7629166666667,247.48800340565768L269.53325,222.80227453058416L269.97583333333336,258.84547578204763L271.30358333333334,252.5040508183566L271.7461666666667,221.36609476262873L272.18874999999997,254.1172199682756L272.6313333333333,290.39540608362717L273.95908333333335,259.91382650895554L275.28683333333333,191.3592446717349L275.7294166666667,276.3960852731358L277.05716666666666,219.61891703172165L277.49975,260.25084991888565L279.2700833333334,210.37114011157644L279.7126666666667,229.94472761587662L281.483,182.46225972609088L281.92558333333335,219.58100240880793L282.36816666666664,205.50993797995827L282.81075,243.58610660379583L283.25333333333333,251.93790541995656L283.6959166666667,241.9914453463121L284.1385,243.70904313434255L285.02366666666666,287.0368977351622L285.46625,241.0974691997875L285.90883333333335,254.42298832806674L286.3514166666667,264.63926323977387L288.12175,284.710337172855L288.56433333333337,211.77140721407804L289.0069166666667,276.5334440686486L289.44950000000006,234.65051247856832L289.89208333333335,305.75240133025426L290.77725,272.0967590592124L291.6624166666667,286.86152217604894L292.5475833333333,239.5890555381775L292.99016666666665,299.82076480171895L294.3179166666667,213.699905092066L294.76050000000004,313.24446155808187L295.2030833333333,290.89440419457173L296.08825,266.6722306121479L296.9734166666667,188.66689788211477L298.74375000000003,204.4525367346677L299.1863333333334,273.34291629357773L300.5140833333333,266.07192936810577L300.95666666666665,260.76539384235036L301.39925,248.6523663780906L301.84183333333334,262.55571579933167L302.2844166666667,303.05429380590266L302.727,321.7368059591813L303.1695833333333,251.59070879762822L304.05475,308.81760248270905L304.49733333333336,255.18348702517423L304.9399166666667,252.49330561811274L305.3825,291.9472499652342L306.2676666666667,254.06185971606862L307.5954166666667,298.8102052753622L309.36575000000005,238.3952760479667L310.6935,301.1227317073128L311.1360833333333,233.98733342777598L311.57866666666666,270.72411079840225L312.90641666666664,214.15586111762306L314.2341666666667,180.47962728413668L314.67675,256.95415711402893L315.1193333333334,305.85719767483795L315.56191666666666,281.9709852392023L316.0045,240.59040197459134L316.44708333333335,235.99697186730123L317.7748333333334,257.3316282359036L318.2174166666667,274.5515674677762L318.66,248.7444972775199L319.10258333333337,249.4513516859575L320.43033333333335,278.02424867586654L323.52841666666666,218.70990577611056L324.8561666666667,257.3813503222032L325.29875000000004,270.15882338177073L326.1839166666667,265.9319557710127L326.6265,311.56557509032166L327.06908333333337,269.20090716535395L327.5116666666667,250.9332496252927L327.95425000000006,282.35364510796285L328.8394166666667,309.1842671199278L329.28200000000004,267.5932127562436L329.7245833333333,281.11800836433065L330.60975,319.2419379732825L331.0523333333333,234.51605447855863L332.38008333333335,276.3633185408332L333.26525,277.4740372245962L334.1504166666667,322.7529627951709L334.593,240.72624908794057L335.03558333333336,318.04505340619517L337.6910833333334,268.20503546974874L338.1336666666667,287.3805602897297L338.57625,288.68209820443934L340.34658333333334,304.01441626115275L341.6743333333333,278.2880780696869L342.5595,298.49849232760346L343.88725,250.45396466688675L345.6575833333334,326.76927759430623L347.4279166666667,338.10961076346314L347.87050000000005,301.78233583406967L348.3130833333334,235.89160353487188L349.19825,348.55678491158915L350.08341666666666,258.1923473748294L350.526,294.35057946768677L350.96858333333336,293.3913558504798L351.85375,228.9855448549444L352.7389166666667,294.5744105685841L353.1815,289.38723664933985L353.6240833333334,258.5860792940313L354.06666666666666,292.4804652062329L354.95183333333335,275.596160270951L355.3944166666667,301.15079996802586L355.83700000000005,299.3498145233501L356.7221666666667,290.88006364215505L358.0499166666667,273.3091690106825L358.9350833333333,282.2682554938576L360.26283333333333,278.0960535786368L360.7054166666667,365.3842996250499L361.5905833333333,261.24006204171616L362.47575,232.76973472942007L363.3609166666667,278.22287145527923L364.24608333333333,248.96234293417496L364.6886666666667,260.45014682683075L366.0164166666667,289.9520542188124L366.90158333333335,270.8453722216866L367.3441666666667,230.30213830687782L369.11449999999996,224.15984682603317L370.88483333333335,310.83108141205525L372.2125833333333,287.58169573003596L372.6551666666667,305.279060959816L373.09775,226.63201915134084L373.54033333333336,293.6197628541426L373.9829166666667,290.20195162296295L374.4255,274.5775929147547L376.1958333333334,288.21654095432973L377.081,295.11453052000564L377.52358333333336,342.30636729977346L377.9661666666667,269.64583199674433L378.40875000000005,272.3197934627533L378.85133333333334,315.69677773388946L380.1790833333333,280.6954114870592L381.06425,274.6127293109894L384.1623333333334,325.8488061536442L385.49008333333336,258.9888404499401L387.70300000000003,291.7929153875871L388.1455833333334,312.36360027573323L388.58816666666667,315.40882270986384L389.91591666666665,367.50139006701386L390.80108333333334,303.9549090970646L391.2436666666667,298.6624894142151L391.68625000000003,303.25073077461934L393.014,258.7499538118189L395.2269166666667,247.85039856217122L396.1120833333334,322.2636271931908L396.99725000000007,285.5875418186188L397.43983333333335,293.91972962292755L398.32500000000005,313.78439765626734L399.65274999999997,263.66639362681997L400.0953333333333,317.94795846939087L400.9805,294.3116842941804L402.75083333333333,306.1749777793884L403.1934166666667,320.5095038955862L404.07858333333337,306.7989756627516L405.40633333333335,341.2603036707098L406.29150000000004,272.71479192647064L407.17666666666673,332.57521979375315L407.61925,324.46379886973983L408.06183333333337,244.0973003127358L408.947,250.5305701819333L409.83216666666664,265.49324109337545L410.27475,297.7927818948572L410.71733333333333,310.9925249814987L411.1599166666667,265.04635516079986L411.6025,267.99703617529434L412.48766666666666,325.1854432496158L412.93025,334.09196813540024L413.37283333333335,374.2939091595737L415.58575,317.6670307246121L416.02833333333336,291.1806432550604L417.3560833333334,335.9283963983709L417.7986666666667,336.50013910640365L418.24125,303.4919053641232L418.6838333333333,365.6925193613225L421.7819166666667,345.9804699420929L423.10966666666667,302.3579803163355L423.55225,314.84043021635574L424.4374166666667,294.7251497940583L426.6503333333334,305.4512497295033L427.0929166666667,331.33096237616104L427.53550000000007,270.99903267080134L428.86325,280.3257847699252L429.30583333333334,308.4766568704085L430.6335833333333,286.26845249262726L431.96133333333336,300.31293991479004L432.4039166666667,308.238934636116L433.28908333333334,262.53263200413096L433.7316666666667,331.17656651410186L434.17425000000003,239.64780686118385L434.6168333333334,279.61549843441355L435.0594166666667,301.8500142530961L437.71491666666674,319.53038327260447L439.04266666666666,220.61156108162618L439.92783333333335,297.20367527008057L440.813,293.50916491855276L442.58333333333337,254.69872732595962L443.02591666666666,296.4673430594531L444.79625000000004,316.37558430975133L445.2388333333334,323.6332929459485L445.6814166666667,240.4175390763716L446.124,286.5117107521404L447.45175000000006,312.2047510797327L450.99241666666666,307.7828764698722L451.435,274.538084897128L452.3201666666667,293.55028675902975L453.2053333333334,339.12838240103287L454.0905,278.6060215993361L454.53308333333337,249.74004212292758L454.9756666666667,271.28478145599365L455.41825000000006,320.2513739520853L457.1885833333334,283.972554564476L457.6311666666667,258.5919217413122L458.5163333333333,356.4589399966327L458.95891666666665,339.9229960875077L459.4015,299.98870451883835L460.2866666666667,277.9386343522505L460.72925000000004,309.88797559521413L462.057,319.06086296384984L462.9421666666667,346.56457167321986L465.1550833333334,317.53690348971975L465.5976666666667,296.7291500676762L466.9254166666667,311.8482596549121L468.2531666666667,263.1670073812658L469.58091666666667,309.50731768391347L470.46608333333336,231.08028691465205L471.79383333333334,321.16438912261617L472.2364166666667,247.73068967732516L474.00675,310.2818913676522L474.44933333333336,344.01326074383473L478.87516666666664,310.71917607567525L479.76033333333334,316.7867618582465L480.2029166666667,326.34435190937734L480.6455,325.1466297886588L481.0880833333334,336.5066761103543L481.97325,345.9178372729908L482.8584166666667,341.0598627870733L483.7435833333334,261.45071699402547L485.07133333333337,309.493937253952L485.95650000000006,342.22359248724854L486.3990833333334,300.07813890413803L487.72683333333333,335.76082438772374L488.1694166666667,320.30465053428304L489.0545833333333,331.24992395531046L489.93975,305.11972148851913L490.38233333333335,282.3965237682516L490.8249166666667,319.81991126320577L491.71008333333333,322.6628542813388L492.1526666666667,307.4351895722476L493.4804166666667,284.4262430667877L495.25075000000004,305.6366555040533L495.6933333333334,328.0977397940375L496.5785000000001,312.6020579229702L497.46366666666665,317.43180072307587L499.234,352.2546454776417L499.6765833333333,343.23025023937225L500.1191666666667,293.7818396958438L500.56175,315.2177379131317L501.00433333333336,303.4073328755118L501.4469166666667,310.90014894442123L501.8895,290.550373933532L502.7746666666667,322.91279254176396L504.545,266.5108891833912L505.4301666666667,296.7739694010128L505.87275000000005,299.6752143231305L507.2005,291.37426114082336L508.97083333333336,346.15359840609807L510.29858333333334,349.61733209003097L511.6263333333334,279.93078630620784L512.0689166666666,330.0545919266614L513.83925,344.3700790188529L514.7244166666667,258.84715088931L515.167,233.1916983344338L516.0521666666667,333.0388363708149L516.9373333333334,348.1749625964598L517.3799166666666,293.00885940681803L518.7076666666667,345.2767001823945L520.9205833333334,363.8437933596698L521.80575,307.14437460899353L522.2483333333333,296.7077209516005L523.1335,306.6747725876895L523.5760833333334,352.97535016319966L525.3464166666666,313.76488878510213L526.2315833333333,281.39456448771733L527.11675,273.5389038432728L528.0019166666667,311.3744494373148L528.8870833333334,311.99620022556996L529.3296666666668,351.13555125756693L529.7722500000001,354.7956197695298L530.6574166666667,284.22028658606786L531.1,303.40804786031896L532.42775,359.0173599178141L532.8703333333334,290.748302156275L533.3129166666666,317.6884802688252L533.7555,210.2737387527119L534.1980833333333,307.5819861672141L536.4110000000001,314.15337067300624L537.2961666666667,330.56554049795324L538.1813333333334,377.89575748010117L538.6239166666667,274.7433468211781L539.0665,316.6686463681134L541.2794166666667,264.0944856730374L543.04975,374.37641840631306L543.9349166666667,300.9484388394789L544.3774999999999,328.6283606615933L547.033,300.1339281472293L547.4755833333334,349.76649834892964L547.9181666666667,297.71170261773193L548.36075,308.45608573610133L548.8033333333334,306.4546798359264L550.5736666666667,336.2755930206992L551.4588333333334,388.86166331984776L551.9014166666666,344.7087366797707L554.5569166666667,284.8515773144635L554.9995,359.40657721866256L556.32725,305.6422119574113L557.2124166666666,335.9240247769789L557.6550000000001,312.7605189843611L558.0975833333333,310.19793172316116L558.98275,316.3792613744736L560.3105,290.1880604895679L560.7530833333334,305.1547148877924L561.1956666666666,289.9900709824128L562.0808333333333,305.8652463609522L562.5234166666667,363.8650999069214L562.966,232.57166350971568L563.4085833333334,292.574884057045L563.8511666666667,344.73041093349457L564.29375,301.81839149648494L565.6215,320.2676143212752L566.0640833333334,328.8401391614567L566.94925,369.6114736578681L567.3918333333334,294.6567155339501L567.8344166666667,244.10861750082535L569.1621666666667,229.37016582489014L569.6047500000001,335.71461594104767L570.0473333333333,241.16014272516423L571.8176666666667,310.04096191579646L574.91575,362.78812850605357L575.8009166666667,326.34138982946223L576.6860833333334,394.9550294117494L577.1286666666667,271.97586534240025L577.57125,291.976482629776L578.8990000000001,327.2317501956766L579.3415833333333,361.6078520146283L579.7841666666667,334.15562221136963L580.6693333333333,350.6698305823586L581.1119166666667,292.0650386051698L581.9970833333334,291.70568724112076L582.88225,334.8874193755063L584.21,337.2918928536502L585.0951666666666,323.845847715031L585.5377500000001,280.3469074639407L586.8655,268.0774821801619L587.3080833333333,331.7443461634896L588.19325,307.495064442808L588.6358333333334,363.484339854934L589.0784166666667,317.4844848892905L589.5210000000001,386.24702516469085L589.9635833333334,365.66167287393046L590.84875,362.211258335547L591.2913333333333,314.6573123931885L591.7339166666667,299.4619037129662L593.0616666666667,304.4199760718779L594.3894166666666,302.2115718559785L595.7171666666667,324.40222846377975L596.15975,329.2174264300953L597.0449166666667,314.7620474533601L597.4875000000001,247.66033517230642L597.9300833333333,299.1552569432692L598.3726666666668,329.7393653392792L598.81525,289.1832004135305L599.2578333333335,311.3870331699198L602.3559166666668,242.00366137244484L603.2410833333333,316.6929762796922L604.12625,315.9780936132778L605.0114166666667,344.85522685267705L605.454,313.4804678288373L608.1095,297.9038088213314L608.5520833333334,319.027136109092L609.4372500000001,314.7334684892134L609.8798333333334,328.14043460109013L610.3224166666666,321.1714776862751L612.09275,302.1526162515987L612.9779166666666,271.7928292317824L613.8630833333333,315.236368374391L614.74825,363.845345898108L615.1908333333334,331.83422996781087L615.6334166666667,331.9305282072587L616.9611666666667,276.6944177909331L617.4037500000001,306.7135860486464L617.8463333333334,320.56670268015426L618.7315000000001,320.99518286098134L619.1740833333333,331.0233963402835L620.5018333333333,368.4339958212592L620.9444166666667,316.00938951969147L622.2721666666666,354.77186184579676L622.7147500000001,362.69264739209956L623.1573333333333,274.2984832741997L624.0425,324.9021458409049L625.8128333333333,303.2460731593045L626.2554166666667,340.35000544244593L626.698,354.6928662386807L628.0257500000001,334.1134789640253L630.2386666666667,413.6161124489524L631.1238333333333,352.5413135290146L632.4515833333334,310.9613312157718L632.8941666666667,295.0555953437632L634.2219166666666,297.4899347587065L634.6645000000001,387.6755852374163L636.8774166666667,332.05025752024216L637.7625833333334,264.59174739230764L638.2051666666667,315.2100977897644L638.64775,300.77817031470215L639.0903333333334,318.27946628223765L639.5329166666667,309.44131437214935L639.9755,295.9811533906243L640.4180833333334,279.3949154073542L641.7458333333333,323.0612438158555L642.1884166666667,249.87413241646505L642.631,378.4301575530659L643.0735833333334,377.56723217530686L643.95875,275.5180635018782L644.8439166666667,369.6671607602726L645.2865,347.3240693915974L646.6142500000001,313.5251645933498L647.0568333333333,308.9055251858451L648.3845833333335,309.7810751524838L649.7123333333334,342.53937063433904L651.4826666666667,353.0507504181428L653.6955833333333,263.5484824180603L654.1381666666667,333.1064739335667L654.58075,333.0599386366931L656.3510833333333,312.8450914729725L657.6788333333334,390.0405915542082L659.89175,347.0308847644112L661.2195,304.1653597680005L662.5472500000001,388.5571615045721L663.4324166666668,357.196681748737L663.875,316.18311039967966L665.20275,336.0237753716382L666.9730833333334,324.2211330262097L668.7434166666668,327.3761362704364L670.51375,333.25112557411194L670.9563333333334,371.22061846472997L673.16925,314.59525171193206L674.0544166666667,341.4610305482691L674.4970000000001,253.48631737448952L675.3821666666668,330.8281442035328L675.82475,338.9665506969798L676.7099166666667,292.2851722132076L679.808,296.134813839739L683.7912500000001,309.1758711554787L684.2338333333333,275.4131650166078L685.119,296.731029456312L685.5615833333334,277.14449051293457L686.8893333333333,307.5696271441199L687.3319166666668,353.3701034892689L688.2170833333334,350.4086772745306L689.9874166666666,344.62050755457443L690.8725833333333,290.53025221824646L692.6429166666667,401.5699054219506L693.0855,312.80738113143224L693.5280833333334,318.09898368878794L693.9706666666667,321.1557071642442L694.4132500000001,300.415387023579L696.1835833333333,280.97958730567586L696.6261666666668,303.9117648709904L697.5113333333334,316.1468095996163L697.9539166666667,338.62756618586457L699.72425,291.9303150393746L701.9371666666667,331.1171614907004L702.3797500000001,301.9357715736736L704.1500833333334,284.2855340567502L705.4778333333334,318.3287798057903L707.2481666666667,299.65825896913356L708.5759166666667,396.21630346775055L709.9036666666667,328.1484628590671L715.65725,352.8950675834309L716.0998333333334,330.8505130139264L717.8701666666666,384.5572096434506L718.31275,324.9685985716907L722.296,292.22100743380463L722.7385833333334,345.57983331246805L724.5089166666668,386.71895599365234L725.3940833333334,351.43476218527013L725.8366666666667,327.8761353601109L726.27925,340.6883362531662L726.7218333333334,319.29257932576263L728.0495833333333,300.1400974447077L728.93475,370.86512801863927L729.3773333333334,347.396364569664L730.2625,283.60078289292073L731.1476666666667,367.959715756503L731.59025,334.0133606628938L732.4754166666667,357.90745835954493L732.918,357.220848235217L733.3605833333334,327.4750288833271L733.8031666666667,372.7649447917938L734.24575,331.96881053664464L734.6883333333334,352.8226498365402L735.1309166666667,314.3343026854775L735.5735000000001,274.57399756258184L736.4586666666668,332.97620370171285L739.5567500000001,279.8557946140116L740.8845,351.34828987988556L741.3270833333333,329.5128581523895L742.21225,310.5375699346716L744.4251666666667,280.64454542506826L744.8677500000001,305.6717714721506L745.3103333333333,393.9918427358974L747.0806666666667,295.1137951070612L747.9658333333334,344.28182946551925L748.4084166666667,348.3383468389511L749.7361666666667,396.26622983542353L750.17875,247.04128089818087L751.9490833333333,354.09209514747965L752.3916666666668,341.3551923686808L752.83425,328.37490876154465L753.7194166666667,311.44625434008515L756.8175000000001,288.6132758097215L757.2600833333333,345.47573152455413L757.7026666666667,323.08367391066116L758.5878333333333,287.0437207330357L759.473,305.125502651388L759.9155833333334,259.3988740227439L763.0136666666667,329.570669781078L764.3414166666668,373.9225256226279L765.2265833333335,327.6305687210776L767.8820833333333,324.00050914287567L769.2098333333333,355.6940083937211L769.6524166666667,328.54570841789246L770.9801666666667,265.68412160873413L773.6356666666668,347.0812605511058L774.07825,346.5529889193448L775.4060000000001,354.7036318670619L775.8485833333334,309.3449957045642L776.2911666666668,289.53145929900086L777.1763333333333,328.4179712750695L778.0615,311.11182530359787L780.2744166666668,343.8347188234329L781.1595833333334,372.87758554111826L781.6021666666667,311.5464952100407L782.04475,333.7975169636986L782.9299166666667,357.6739443215457L783.8150833333334,298.723814682527L784.2576666666666,343.1315823359923L784.7002500000001,331.8871592716737L785.1428333333333,381.93198971314865L786.4705833333333,355.9531597440893L787.35575,347.3387776504863L788.2409166666666,341.86969543587077L788.6835000000001,378.25302517414093L789.1260833333333,351.1618626984683L790.4538333333334,353.7751730246977L792.66675,377.8301014466719L794.8796666666667,348.2348783232949L795.32225,336.32649993896484L795.7648333333334,327.07598564841527L797.5351666666667,362.15863545374435L797.97775,336.8098705248399L798.4203333333334,309.2453268224543L801.5184166666668,282.6678502884778L801.961,313.2974930026314L802.8461666666667,311.26258495720947L803.28875,335.6280619231137L804.1739166666667,340.2875770547173L806.8294166666668,317.7545448650013L807.7145833333333,341.7686578685587L808.59975,315.53414933247996L809.0423333333334,326.2409242499958L810.8126666666667,362.97151189500636L812.5830000000001,292.0355199467052L813.0255833333333,331.9718543291092L813.4681666666668,257.5167888728055L814.7959166666667,329.73944705182856L815.2385,311.8824767849662L817.4514166666667,372.5809485587207L817.894,367.3413356109099L818.7791666666667,353.32810323888606L819.6643333333333,352.0748982971365L820.1069166666667,315.6030534397472L820.5495,345.9365494467995L820.9920833333334,374.2675977186723L821.8772500000001,368.603671930053L822.7624166666667,378.3286705667322L824.5327500000001,345.52870168469167L825.4179166666668,279.2148822329261L826.3030833333335,322.4452741904692L827.6308333333334,339.0969843539325L828.0734166666666,318.2580167380246L829.84375,333.94604995033956L831.1715,303.4637962471355L832.0566666666667,334.82072150707245L832.49925,329.9013196121562L833.3844166666667,363.48654609376734L834.7121666666668,347.32797116583043L835.15475,316.1228882507844L835.5973333333334,265.2592163519426L836.0399166666667,353.9787189852107L838.2528333333333,314.14131807197225L838.6954166666667,309.6760745265267L839.138,311.8557159250433L840.0231666666667,304.04317907853556L840.4657500000001,276.53853067484766L840.9083333333333,325.1105128418315L841.3509166666668,376.1704582842914L842.2360833333335,377.24385476112366L843.12125,338.398464625532L844.4490000000001,385.9851364439184L845.3341666666666,349.3066814054142L845.7767500000001,359.8755459677089L846.2193333333333,347.0387495972893L846.6619166666667,340.3470229343934L849.3174166666666,296.68594455718994L849.7600000000001,368.3890947753733L851.08775,284.6251314119859L851.5303333333334,339.0586203119971L851.9729166666667,364.5187185894359L852.4155000000001,328.3940499262376L854.6284166666667,362.06536057862365L858.1690833333333,330.221183386716L858.6116666666667,267.6596042026173L860.3820000000001,361.13436864722854L861.2671666666666,275.68477753075683L862.5949166666668,279.4720520539717L863.0375,311.94323006543243L863.4800833333334,347.0430190779946L863.9226666666667,313.6597451621836L864.8078333333334,326.9828333421187L865.2504166666668,337.77730625325984L866.5781666666667,338.5831758434122L868.7910833333333,329.7069663134488L869.2336666666667,309.9949168942191L870.1188333333334,287.9787165793506L870.5614166666667,307.2129314379258L871.4465833333334,263.8963735970584L874.5446666666668,341.1977527141571L874.98725,346.8330995386297L875.4298333333335,335.7436034679413L876.7575833333334,355.1851639205759L878.5279166666667,337.94835104725576L878.9705,367.6040414571762L879.4130833333334,390.76342076605016L879.8556666666667,319.5096078569239L880.7408333333334,341.1609616387974L881.1834166666667,332.26687748865646L882.0685833333334,308.233378182758L882.9537500000001,309.43661590055984L883.8389166666667,296.2280070023103L884.2815,263.13309667327184L885.60925,343.8448920358311L886.4944166666667,360.9038984016938L886.937,367.8286488272927L887.3795833333334,338.6250739531083L889.1499166666666,344.03225891156626L890.0350833333333,358.13664163242686L891.8054166666667,374.05626863783056L892.6905833333334,332.1491092768582L893.5757500000001,307.3003025813536L894.0183333333334,316.966876745224L895.7886666666667,351.5248094146902L897.1164166666667,391.98422668196935L897.559,335.4478653235869L898.4441666666667,360.6224190972068L898.88675,334.0811616507443L899.7719166666667,353.2941516746174L900.2145,364.9366782795299L900.6570833333334,382.8602034178647L901.5422500000001,327.1885038289157L901.9848333333333,340.9329836260188L902.4274166666668,343.46223216707057L905.0829166666666,334.7076517668637L905.5255000000001,377.82910046794194L905.9680833333333,339.36594121022654L906.4106666666668,344.3191721005873L906.85325,381.28880980881775L908.181,325.8226989941163L909.0661666666667,389.94037111239L912.16425,318.577921368859L913.9345833333334,335.8817181045359L914.3771666666668,329.60709314996546L914.81975,332.33694599975234L915.2623333333333,298.1416331963105L917.0326666666666,333.68544820221985L917.4752500000001,383.6825176585804L917.9178333333333,343.03963528979904L918.3604166666668,427.35783444751394L918.803,354.37716980413956L919.6881666666667,334.6915135383606L921.0159166666667,391.03856734796005L922.3436666666666,332.59456523981964L922.7862500000001,362.34604318575424L923.6714166666668,381.6393975019455L924.5565833333333,311.750470161438L925.44175,323.642424323342L927.6546666666667,365.6224099939519L929.4250000000001,388.2583182833411L930.75275,338.5297562642531L932.5230833333334,416.8891698989001L933.4082500000001,331.5902975797653L933.8508333333334,327.4782361008904L934.2934166666668,319.84407774968577L935.6211666666667,304.19663524627686L936.9489166666667,353.817908688025L937.8340833333334,315.28180055184794L940.4895833333334,333.8366164185784L940.9321666666667,318.8339676423506L941.3747500000001,354.2447954741391L942.2599166666668,318.2293356331912L942.7025,329.36557128212667L944.0302500000001,323.2003185749054L945.3580000000001,270.46749253706497L945.8005833333333,316.2068478952755L947.1283333333334,287.5840449658307L947.5709166666667,367.8327957391739L948.0135,339.97962288423014L948.4560833333334,338.03537491234863L949.7838333333334,351.5176799947565L950.6690000000001,287.610356406732L951.99675,327.92694013768977L952.4393333333334,336.34950202161616L953.3245000000001,339.0879346890883L954.6522500000001,318.1320976994254L956.4225833333334,378.14359164237976L956.8651666666667,354.31327059052205L957.30775,335.92216581648046L957.7503333333333,287.1682710864327L958.1929166666667,326.6718762354417L959.0780833333334,320.85488241369075L959.5206666666667,325.8029041290283L959.9632500000001,320.15231791409576L960.4058333333334,299.9479912411083L963.0613333333333,372.4200769771229L963.9465,356.23404663259333L964.3890833333334,354.3433612368323L964.8316666666667,338.5729617747394L965.2742499999999,349.1956136226654L965.7168333333334,365.8027904467149L966.1594166666666,361.41554152965546L966.6020000000001,306.1238052953373L967.4871666666668,351.32126345417714L968.3723333333334,315.27524311976L968.8149166666667,348.3965261741118L969.2575,280.8660681464455L970.1426666666667,346.62650978565216L970.58525,351.4117601026188L971.0278333333334,351.20124814727086L971.9130000000001,353.7961527217518L975.0110833333334,333.0664756406437L981.20725,370.0338662537662L981.6498333333334,353.5134885852987L983.4201666666667,385.5585152235898L983.86275,319.4101023999127L984.3053333333334,358.92055097493255L985.1905,416.6489350037141L985.6330833333333,365.7655499523336L986.51825,329.9690388874574L987.8460000000001,351.3711081093008L988.2885833333333,318.42432220415634L989.17375,295.8934349688617L989.6163333333334,238.0031783797524L990.0589166666667,392.23618732799184L990.9440833333333,374.3601984652606L991.82925,299.2274499806491L992.2718333333335,302.0356651652943L993.1570000000002,287.26050412654877L993.5995833333334,341.06962743672455L994.9273333333333,335.22511691396886L995.3699166666668,344.48535499789494L995.8125,358.96543159268117L998.0254166666667,358.95241886919194L998.468,359.53635717522013L998.9105833333334,337.4667781374671L999.3531666666667,331.3212385827845L1003.779,340.47743616320867L1004.2215833333333,382.75465123219925L1005.10675,300.6018959175457L1006.8770833333333,373.6623732935298L1008.6474166666667,402.77103904160583L1009.09,324.28999627720225L1010.8603333333334,286.7882260192524L1011.3029166666666,377.1667181145061L1012.1880833333333,379.33561431277883L1012.6306666666668,292.98469292033803L1013.5158333333334,363.7216126702048L1013.9584166666667,387.2669612060894L1014.401,372.4524555748159L1014.8435833333334,337.73271162943405L1016.1713333333333,305.8098248243332L1016.6139166666667,338.81023459001017L1017.0565,369.83205668492747L1017.4990833333334,373.93754030357707L1018.3842500000001,373.010511430827L1018.8268333333333,345.875367175449L1019.712,293.7034365047108L1020.1545833333334,333.8068526224656L1020.5971666666667,357.96547426960683L1021.0397500000001,353.8139660575173L1021.4823333333334,314.37303443388504L1022.3675000000001,321.8334106206894L1022.8100833333333,266.87442831559616L1024.5804166666667,374.7072520906275L1025.023,355.5173867182298L1026.7933333333333,350.5044443824074L1027.2359166666668,330.6410837498578L1028.1210833333334,377.32481146942484L1028.5636666666667,356.81916977058756L1029.0062500000001,304.5672425140034" style="fill: none;" fill="none"></path></g></g></g></g></g></g><g transform="translate(50, 377)" clip-path="url(#clip_1)"><clipPath id="clip_1"><rect width="1062" height="23"></rect></clipPath><g><g><line x1="0" y1="0" x2="0" y2="5" style="visibility: inherit;" fill="rgb(0, 0, 0)" stroke="rgb(204, 204, 204)" stroke-width="1px"></line><line x1="88.51666666666667" y1="0" x2="88.51666666666667" y2="5" style="visibility: inherit;" fill="rgb(0, 0, 0)" stroke="rgb(204, 204, 204)" stroke-width="1px"></line><line x1="177.03333333333333" y1="0" x2="177.03333333333333" y2="5" style="visibility: inherit;" fill="rgb(0, 0, 0)" stroke="rgb(204, 204, 204)" stroke-width="1px"></line><line x1="265.55" y1="0" x2="265.55" y2="5" style="visibility: inherit;" fill="rgb(0, 0, 0)" stroke="rgb(204, 204, 204)" stroke-width="1px"></line><line x1="354.06666666666666" y1="0" x2="354.06666666666666" y2="5" style="visibility: inherit;" fill="rgb(0, 0, 0)" stroke="rgb(204, 204, 204)" stroke-width="1px"></line><line x1="442.58333333333337" y1="0" x2="442.58333333333337" y2="5" style="visibility: inherit;" fill="rgb(0, 0, 0)" stroke="rgb(204, 204, 204)" stroke-width="1px"></line><line x1="531.1" y1="0" x2="531.1" y2="5" style="visibility: inherit;" fill="rgb(0, 0, 0)" stroke="rgb(204, 204, 204)" stroke-width="1px"></line><line x1="619.6166666666668" y1="0" x2="619.6166666666668" y2="5" style="visibility: inherit;" fill="rgb(0, 0, 0)" stroke="rgb(204, 204, 204)" stroke-width="1px"></line><line x1="708.1333333333333" y1="0" x2="708.1333333333333" y2="5" style="visibility: inherit;" fill="rgb(0, 0, 0)" stroke="rgb(204, 204, 204)" stroke-width="1px"></line><line x1="796.6500000000001" y1="0" x2="796.6500000000001" y2="5" style="visibility: inherit;" fill="rgb(0, 0, 0)" stroke="rgb(204, 204, 204)" stroke-width="1px"></line><line x1="885.1666666666667" y1="0" x2="885.1666666666667" y2="5" style="visibility: inherit;" fill="rgb(0, 0, 0)" stroke="rgb(204, 204, 204)" stroke-width="1px"></line><line x1="973.6833333333333" y1="0" x2="973.6833333333333" y2="5" style="visibility: inherit;" fill="rgb(0, 0, 0)" stroke="rgb(204, 204, 204)" stroke-width="1px"></line><line x1="1062.2" y1="0" x2="1062.2" y2="5" style="visibility: inherit;" fill="rgb(0, 0, 0)" stroke="rgb(204, 204, 204)" stroke-width="1px"></line></g><g transform="translate(0, 8)"><text x="0" y="0" dx="0em" dy="0.95em" style="text-anchor: middle; visibility: hidden; font-family: Roboto, sans-serif; font-size: 12px; font-weight: 200;" fill="rgb(33, 33, 33)" stroke="none" stroke-width="1px">-200</text><text x="88.51666666666667" y="0" dx="0em" dy="0.95em" style="text-anchor: middle; visibility: inherit; font-family: Roboto, sans-serif; font-size: 12px; font-weight: 200;" fill="rgb(33, 33, 33)" stroke="none" stroke-width="1px">0</text><text x="177.03333333333333" y="0" dx="0em" dy="0.95em" style="text-anchor: middle; visibility: inherit; font-family: Roboto, sans-serif; font-size: 12px; font-weight: 200;" fill="rgb(33, 33, 33)" stroke="none" stroke-width="1px">200</text><text x="265.55" y="0" dx="0em" dy="0.95em" style="text-anchor: middle; visibility: inherit; font-family: Roboto, sans-serif; font-size: 12px; font-weight: 200;" fill="rgb(33, 33, 33)" stroke="none" stroke-width="1px">400</text><text x="354.06666666666666" y="0" dx="0em" dy="0.95em" style="text-anchor: middle; visibility: inherit; font-family: Roboto, sans-serif; font-size: 12px; font-weight: 200;" fill="rgb(33, 33, 33)" stroke="none" stroke-width="1px">600</text><text x="442.58333333333337" y="0" dx="0em" dy="0.95em" style="text-anchor: middle; visibility: inherit; font-family: Roboto, sans-serif; font-size: 12px; font-weight: 200;" fill="rgb(33, 33, 33)" stroke="none" stroke-width="1px">800</text><text x="531.1" y="0" dx="0em" dy="0.95em" style="text-anchor: middle; visibility: inherit; font-family: Roboto, sans-serif; font-size: 12px; font-weight: 200;" fill="rgb(33, 33, 33)" stroke="none" stroke-width="1px">1k</text><text x="619.6166666666668" y="0" dx="0em" dy="0.95em" style="text-anchor: middle; visibility: inherit; font-family: Roboto, sans-serif; font-size: 12px; font-weight: 200;" fill="rgb(33, 33, 33)" stroke="none" stroke-width="1px">1.2k</text><text x="708.1333333333333" y="0" dx="0em" dy="0.95em" style="text-anchor: middle; visibility: inherit; font-family: Roboto, sans-serif; font-size: 12px; font-weight: 200;" fill="rgb(33, 33, 33)" stroke="none" stroke-width="1px">1.4k</text><text x="796.6500000000001" y="0" dx="0em" dy="0.95em" style="text-anchor: middle; visibility: inherit; font-family: Roboto, sans-serif; font-size: 12px; font-weight: 200;" fill="rgb(33, 33, 33)" stroke="none" stroke-width="1px">1.6k</text><text x="885.1666666666667" y="0" dx="0em" dy="0.95em" style="text-anchor: middle; visibility: inherit; font-family: Roboto, sans-serif; font-size: 12px; font-weight: 200;" fill="rgb(33, 33, 33)" stroke="none" stroke-width="1px">1.8k</text><text x="973.6833333333333" y="0" dx="0em" dy="0.95em" style="text-anchor: middle; visibility: inherit; font-family: Roboto, sans-serif; font-size: 12px; font-weight: 200;" fill="rgb(33, 33, 33)" stroke="none" stroke-width="1px">2k</text><text x="1062.2" y="0" dx="0em" dy="0.95em" style="text-anchor: middle; visibility: hidden; font-family: Roboto, sans-serif; font-size: 12px; font-weight: 200;" fill="rgb(33, 33, 33)" stroke="none" stroke-width="1px">2.2k</text></g><line x1="0" y1="0" x2="1062.2" y2="0" fill="rgb(0, 0, 0)" stroke="rgb(204, 204, 204)" stroke-width="1px"></line></g></g></g></g></svg>